<svg data-v-423bf9ae="" xmlns="http://www.w3.org/2000/svg" viewBox="0 0 327 90" class="iconLeftSlogan"><!----><!----><!----><g data-v-423bf9ae="" id="f4aba194-7ee7-4fd8-8f51-0bc3ae03f018" fill="black" transform="matrix(4.285714285714286,0,0,4.285714285714286,107.47143512112754,3.000000723770686)"><path d="M3.68 9.27L3.68 9.27L3.68 9.27Q4.31 9.27 4.63 9.02L4.63 9.02L4.63 9.02Q4.96 8.76 4.96 8.34L4.96 8.34L4.96 8.34Q4.96 7.87 4.65 7.67L4.65 7.67L4.65 7.67Q4.34 7.46 3.54 7.39L3.54 7.39L3.54 7.39Q2.00 7.27 1.34 6.80L1.34 6.80L1.34 6.80Q0.69 6.33 0.69 5.35L0.69 5.35L0.69 5.24L0.69 5.24Q0.69 4.09 1.51 3.49L1.51 3.49L1.51 3.49Q2.32 2.90 3.68 2.90L3.68 2.90L3.68 2.90Q6.69 2.90 6.69 5.43L6.69 5.43L6.69 5.50L4.91 5.50L4.91 5.50Q4.91 4.31 3.68 4.31L3.68 4.31L3.68 4.31Q3.11 4.31 2.79 4.55L2.79 4.55L2.79 4.55Q2.48 4.79 2.48 5.19L2.48 5.19L2.48 5.19Q2.48 5.63 2.77 5.83L2.77 5.83L2.77 5.83Q3.05 6.03 3.84 6.09L3.84 6.09L3.84 6.09Q5.35 6.22 6.06 6.66L6.06 6.66L6.06 6.66Q6.78 7.11 6.78 8.18L6.78 8.18L6.78 8.27L6.78 8.27Q6.78 9.39 5.99 10.04L5.99 10.04L5.99 10.04Q5.19 10.68 3.68 10.68L3.68 10.68L3.68 10.68Q2.16 10.68 1.37 10.00L1.37 10.00L1.37 10.00Q0.59 9.31 0.59 8.23L0.59 8.23L0.59 8.18L2.39 8.18L2.39 8.18Q2.39 9.27 3.68 9.27ZM10.64 0.98L10.64 3.08L12.70 3.08L12.70 4.68L10.64 4.68L10.64 7.88L10.64 7.88Q10.64 8.58 10.93 8.83L10.93 8.83L10.93 8.83Q11.23 9.09 11.84 9.09L11.84 9.09L11.84 9.09Q12.36 9.09 12.56 8.99L12.56 8.99L12.56 10.50L12.56 10.50Q12.19 10.68 11.41 10.68L11.41 10.68L11.41 10.68Q8.82 10.68 8.82 8.08L8.82 8.08L8.82 4.68L7.69 4.68L7.69 3.08L8.82 3.08L8.82 0.98L10.64 0.98ZM15.39 3.08L17.01 8.23L18.65 3.08L20.61 3.08L17.99 10.14L17.01 13.30L14.85 13.30L16.03 10.14L13.41 3.08L15.39 3.08ZM23.34 10.50L21.52 10.50L21.52-0.70L23.34-0.70L23.34 10.50ZM31.40 6.61L31.40 7.46L26.50 7.46L26.50 7.46Q26.60 9.27 28.17 9.27L28.17 9.27L28.17 9.27Q28.87 9.27 29.27 8.93L29.27 8.93L29.27 8.93Q29.68 8.58 29.68 8.12L29.68 8.12L31.40 8.12L31.40 8.18L31.40 8.18Q31.40 9.23 30.54 9.95L30.54 9.95L30.54 9.95Q29.68 10.68 28.15 10.68L28.15 10.68L28.15 10.68Q26.43 10.68 25.56 9.66L25.56 9.66L25.56 9.66Q24.68 8.64 24.68 6.97L24.68 6.97L24.68 6.61L24.68 6.61Q24.68 4.94 25.55 3.92L25.55 3.92L25.55 3.92Q26.42 2.90 28.08 2.90L28.08 2.90L28.08 2.90Q29.72 2.90 30.56 3.92L30.56 3.92L30.56 3.92Q31.40 4.94 31.40 6.61L31.40 6.61ZM28.04 4.31L28.04 4.31L28.04 4.31Q26.61 4.31 26.50 6.12L26.50 6.12L29.57 6.12L29.57 6.12Q29.48 4.31 28.04 4.31ZM36.19 6.40L32.48 6.40L32.48 4.80L36.19 4.80L36.19 6.40ZM39.41 10.50L37.59 10.50L37.59-0.70L39.41-0.70L39.41 10.50ZM42.91 10.50L41.09 10.50L41.09 3.08L42.91 3.08L42.91 10.50ZM41.01-0.18L42.99-0.18L42.99 1.79L41.01 1.79L41.01-0.18ZM44.55-0.70L46.37-0.70L46.37 3.77L46.37 3.77Q47.10 2.90 48.34 2.90L48.34 2.90L48.34 2.90Q51.11 2.90 51.11 6.57L51.11 6.57L51.11 7.01L51.11 7.01Q51.11 8.71 50.45 9.70L50.45 9.70L50.45 9.70Q49.78 10.68 48.34 10.68L48.34 10.68L48.34 10.68Q46.91 10.68 46.20 9.58L46.20 9.58L46.05 10.50L44.44 10.50L44.55 8.40L44.55-0.70ZM46.37 5.33L46.37 5.33L46.37 8.25L46.37 8.25Q46.90 9.09 47.82 9.09L47.82 9.09L47.82 9.09Q49.29 9.09 49.29 7.01L49.29 7.01L49.29 6.57L49.29 6.57Q49.29 4.48 47.82 4.48L47.82 4.48L47.82 4.48Q46.91 4.48 46.37 5.33Z"></path></g><!----><g data-v-423bf9ae="" id="5aa9b989-3dc7-49e8-9785-35f2d7601142" transform="matrix(2.8125,0,0,2.8125,0,0)" stroke="none" fill="black"><path d="M0 32h32V0H0v32zM2.038 2.038h27.923v27.923H2.038V2.038z"></path><path d="M4.038 27.962h23.923V4.038H4.038v23.924zM21.049 8.25h3.402v3.402h-3.402V8.25zm0 6.049h3.402v3.402h-3.402v-3.402zm0 6.049h3.402v3.402h-3.402v-3.402zM14.299 8.25h3.402v3.402h-3.402V8.25zm0 6.049h3.402v3.402h-3.402v-3.402zm0 6.049h3.402v3.402h-3.402v-3.402zM7.549 8.25h3.402v3.402H7.549V8.25zm0 6.049h3.402v3.402H7.549v-3.402zm0 6.049h3.402v3.402H7.549v-3.402z"></path></g><!----><g data-v-423bf9ae="" id="817be265-6ae6-495e-abff-274f829164f8" fill="black" transform="matrix(1.1326931219914143,0,0,1.1326931219914143,109.44498032536221,58.221673703008356)"><path d="M3.12 8.12C3.12 7.35 3.34 6.74 3.78 6.28C4.22 5.82 4.72 5.59 5.29 5.59C5.76 5.59 6.14 5.77 6.43 6.14C6.72 6.51 6.86 6.93 6.86 7.42C6.86 7.45 6.86 7.49 6.85 7.54C6.85 7.59 6.85 7.63 6.85 7.64L6.73 8.27C6.58 8.78 6.32 9.18 5.94 9.49C5.57 9.80 5.15 9.95 4.69 9.95C4.22 9.95 3.85 9.78 3.56 9.44C3.27 9.09 3.12 8.65 3.12 8.12ZM0.49 8.12C0.49 9.53 0.88 10.65 1.67 11.47C2.46 12.30 3.56 12.71 4.97 12.71C6.15 12.71 7.30 12.44 8.44 11.89L8.32 11.51C7.35 12.05 6.24 12.32 4.97 12.32C3.67 12.32 2.67 11.94 1.97 11.19C1.26 10.44 0.91 9.42 0.91 8.12C0.91 6.68 1.37 5.48 2.29 4.52C3.21 3.56 4.38 3.08 5.81 3.08C7.01 3.08 8.00 3.48 8.76 4.28C9.52 5.07 9.90 6.03 9.90 7.14C9.90 8.07 9.67 8.80 9.22 9.31C8.77 9.82 8.29 10.08 7.80 10.08C7.33 10.08 7.10 9.69 7.10 8.90C7.10 8.80 7.11 8.68 7.13 8.55L7.70 5.32L7.28 5.32L7.03 6.71C6.93 6.24 6.74 5.87 6.45 5.61C6.15 5.34 5.77 5.21 5.29 5.21C4.63 5.21 4.04 5.47 3.51 5.98C2.99 6.50 2.73 7.21 2.73 8.12C2.73 8.80 2.91 9.34 3.25 9.74C3.60 10.13 4.05 10.33 4.59 10.33C5.55 10.33 6.25 9.92 6.69 9.10C6.67 9.51 6.76 9.84 6.94 10.09C7.13 10.35 7.41 10.47 7.78 10.47C8.39 10.47 8.96 10.18 9.49 9.58C10.02 8.99 10.29 8.18 10.29 7.14C10.29 6.38 10.12 5.67 9.78 5.00C9.44 4.34 8.92 3.78 8.22 3.35C7.53 2.91 6.72 2.69 5.81 2.69C4.26 2.69 2.99 3.21 1.99 4.24C0.99 5.28 0.49 6.57 0.49 8.12ZM19.39 8.68C19.39 8.12 19.59 7.61 20.00 7.15C20.41 6.70 20.91 6.47 21.52 6.47C22.57 6.47 23.10 7.16 23.10 8.54L23.10 12.60L23.52 12.60L23.52 8.40C23.52 7.68 23.36 7.11 23.04 6.68C22.73 6.26 22.26 6.05 21.66 6.05C21.07 6.05 20.58 6.19 20.20 6.46C19.82 6.74 19.55 7.12 19.39 7.62L19.39 6.16L18.97 6.16L18.97 12.60L19.39 12.60ZM36.29 6.16L34.40 8.89L32.52 6.16L31.99 6.16L34.15 9.28L31.85 12.60L32.38 12.60L34.40 9.66L36.43 12.60L36.96 12.60L34.68 9.28L36.82 6.16ZM44.17 9.45L46.97 9.45L46.97 9.10L44.17 9.10ZM57.81 2.55L58.07 2.24C57.74 1.79 57.34 1.57 56.88 1.57C55.87 1.57 55.37 2.31 55.37 3.78L55.37 6.16L54.74 6.16L54.74 6.58L55.37 6.58L55.37 12.60L55.79 12.60L55.79 6.58L57.47 6.58L57.47 6.16L55.79 6.16L55.79 3.78C55.79 2.60 56.15 2.02 56.88 2.02C57.22 2.02 57.53 2.19 57.81 2.55ZM70.53 10.08C70.53 10.64 70.33 11.15 69.92 11.61C69.52 12.06 69.01 12.29 68.40 12.29C67.35 12.29 66.82 11.60 66.82 10.22L66.82 6.16L66.40 6.16L66.40 10.36C66.40 11.08 66.56 11.65 66.88 12.07C67.20 12.50 67.66 12.71 68.26 12.71C68.85 12.71 69.34 12.57 69.72 12.30C70.10 12.02 70.37 11.64 70.53 11.14L70.53 12.60L70.95 12.60L70.95 6.16L70.53 6.16ZM80.33 1.68L80.33 12.60L80.75 12.60L80.75 1.68ZM90.13 1.68L90.13 12.60L90.55 12.60L90.55 1.68ZM99.72 10.50L99.30 10.58C99.41 11.16 99.67 11.66 100.06 12.08C100.46 12.50 100.97 12.71 101.58 12.71C102.15 12.71 102.62 12.56 102.98 12.24C103.35 11.93 103.53 11.50 103.53 10.96C103.53 9.99 102.94 9.34 101.77 9.00C101.25 8.85 100.86 8.68 100.58 8.47C100.30 8.26 100.16 7.98 100.16 7.63C100.16 7.28 100.28 7.00 100.54 6.79C100.80 6.58 101.15 6.48 101.58 6.48C102.29 6.48 102.81 6.86 103.14 7.63L103.52 7.45C103.19 6.51 102.54 6.05 101.57 6.05C101.04 6.05 100.59 6.19 100.23 6.47C99.86 6.75 99.68 7.14 99.68 7.64C99.68 7.90 99.73 8.12 99.82 8.31C99.91 8.50 100.06 8.66 100.26 8.80C100.46 8.93 100.65 9.04 100.83 9.12C101.02 9.20 101.26 9.29 101.57 9.39C102.08 9.57 102.46 9.78 102.70 10.01C102.95 10.24 103.07 10.57 103.07 11.00C103.07 11.38 102.94 11.68 102.68 11.92C102.41 12.16 102.05 12.28 101.57 12.28C101.05 12.28 100.62 12.09 100.30 11.71C99.98 11.33 99.79 10.93 99.72 10.50ZM112.35 3.92L112.35 6.16L111.30 6.16L111.30 6.58L112.35 6.58L112.35 12.60L112.77 12.60L112.77 6.58L113.82 6.58L113.82 6.16L112.77 6.16L112.77 3.92ZM122.05 7.32C122.43 7.03 122.77 6.81 123.09 6.66C123.42 6.51 123.82 6.44 124.29 6.44C125.43 6.44 126.00 6.95 126.00 7.98L126.00 9.13C125.51 8.82 124.88 8.67 124.12 8.67C123.43 8.67 122.84 8.85 122.34 9.21C121.84 9.56 121.59 10.07 121.59 10.71C121.59 11.39 121.80 11.90 122.22 12.24C122.64 12.57 123.14 12.74 123.73 12.74C124.33 12.74 124.83 12.61 125.22 12.35C125.62 12.09 125.88 11.74 126.00 11.31L126.00 12.60L126.42 12.60L126.42 7.98C126.42 7.34 126.25 6.85 125.92 6.52C125.58 6.19 125.04 6.02 124.29 6.02C123.93 6.02 123.58 6.07 123.25 6.18C122.92 6.29 122.67 6.40 122.49 6.50C122.32 6.61 122.10 6.76 121.83 6.96ZM122.02 10.71C122.02 10.20 122.22 9.79 122.62 9.50C123.02 9.21 123.52 9.06 124.12 9.06C124.80 9.06 125.42 9.23 126.00 9.56L126.00 10.36C126.00 10.94 125.78 11.41 125.34 11.79C124.90 12.16 124.39 12.35 123.80 12.35C123.24 12.35 122.81 12.21 122.49 11.93C122.18 11.65 122.02 11.24 122.02 10.71ZM135.39 9.38C135.39 8.55 135.64 7.86 136.14 7.30C136.64 6.75 137.29 6.47 138.08 6.47C139.02 6.47 139.72 6.83 140.18 7.56L140.18 6.87C139.71 6.32 139.01 6.05 138.08 6.05C137.20 6.05 136.45 6.36 135.86 6.99C135.26 7.62 134.96 8.42 134.96 9.38C134.96 10.34 135.26 11.14 135.86 11.77C136.45 12.40 137.20 12.71 138.08 12.71C139.02 12.71 139.72 12.44 140.18 11.89L140.18 11.20C139.95 11.63 139.66 11.92 139.31 12.07C138.97 12.22 138.56 12.29 138.08 12.29C137.29 12.29 136.64 12.01 136.14 11.46C135.64 10.90 135.39 10.21 135.39 9.38ZM149.14 1.68L149.14 12.60L149.56 12.60L149.56 8.90L152.84 12.60L153.41 12.60L150.05 8.82L153.13 6.16L152.50 6.16L149.56 8.69L149.56 1.68Z"></path></g></svg>