<svg data-v-423bf9ae="" xmlns="http://www.w3.org/2000/svg" viewBox="0 0 216.51428767613 60" class="font"><!----><!----><!----><g data-v-423bf9ae="" id="1ccc5865-cf8b-4601-838d-e991093f5455" fill="white" transform="matrix(4.285714285714286,0,0,4.285714285714286,-2.52857250826699,3.000000723770686)"><path d="M3.68 9.27L3.68 9.27L3.68 9.27Q4.31 9.27 4.63 9.02L4.63 9.02L4.63 9.02Q4.96 8.76 4.96 8.34L4.96 8.34L4.96 8.34Q4.96 7.87 4.65 7.67L4.65 7.67L4.65 7.67Q4.34 7.46 3.54 7.39L3.54 7.39L3.54 7.39Q2.00 7.27 1.34 6.80L1.34 6.80L1.34 6.80Q0.69 6.33 0.69 5.35L0.69 5.35L0.69 5.24L0.69 5.24Q0.69 4.09 1.51 3.49L1.51 3.49L1.51 3.49Q2.32 2.90 3.68 2.90L3.68 2.90L3.68 2.90Q6.69 2.90 6.69 5.43L6.69 5.43L6.69 5.50L4.91 5.50L4.91 5.50Q4.91 4.31 3.68 4.31L3.68 4.31L3.68 4.31Q3.11 4.31 2.79 4.55L2.79 4.55L2.79 4.55Q2.48 4.79 2.48 5.19L2.48 5.19L2.48 5.19Q2.48 5.63 2.77 5.83L2.77 5.83L2.77 5.83Q3.05 6.03 3.84 6.09L3.84 6.09L3.84 6.09Q5.35 6.22 6.06 6.66L6.06 6.66L6.06 6.66Q6.78 7.11 6.78 8.18L6.78 8.18L6.78 8.27L6.78 8.27Q6.78 9.39 5.99 10.04L5.99 10.04L5.99 10.04Q5.19 10.68 3.68 10.68L3.68 10.68L3.68 10.68Q2.16 10.68 1.37 10.00L1.37 10.00L1.37 10.00Q0.59 9.31 0.59 8.23L0.59 8.23L0.59 8.18L2.39 8.18L2.39 8.18Q2.39 9.27 3.68 9.27ZM10.64 0.98L10.64 3.08L12.70 3.08L12.70 4.68L10.64 4.68L10.64 7.88L10.64 7.88Q10.64 8.58 10.93 8.83L10.93 8.83L10.93 8.83Q11.23 9.09 11.84 9.09L11.84 9.09L11.84 9.09Q12.36 9.09 12.56 8.99L12.56 8.99L12.56 10.50L12.56 10.50Q12.19 10.68 11.41 10.68L11.41 10.68L11.41 10.68Q8.82 10.68 8.82 8.08L8.82 8.08L8.82 4.68L7.69 4.68L7.69 3.08L8.82 3.08L8.82 0.98L10.64 0.98ZM15.39 3.08L17.01 8.23L18.65 3.08L20.61 3.08L17.99 10.14L17.01 13.30L14.85 13.30L16.03 10.14L13.41 3.08L15.39 3.08ZM23.34 10.50L21.52 10.50L21.52-0.70L23.34-0.70L23.34 10.50ZM31.40 6.61L31.40 7.46L26.50 7.46L26.50 7.46Q26.60 9.27 28.17 9.27L28.17 9.27L28.17 9.27Q28.87 9.27 29.27 8.93L29.27 8.93L29.27 8.93Q29.68 8.58 29.68 8.12L29.68 8.12L31.40 8.12L31.40 8.18L31.40 8.18Q31.40 9.23 30.54 9.95L30.54 9.95L30.54 9.95Q29.68 10.68 28.15 10.68L28.15 10.68L28.15 10.68Q26.43 10.68 25.56 9.66L25.56 9.66L25.56 9.66Q24.68 8.64 24.68 6.97L24.68 6.97L24.68 6.61L24.68 6.61Q24.68 4.94 25.55 3.92L25.55 3.92L25.55 3.92Q26.42 2.90 28.08 2.90L28.08 2.90L28.08 2.90Q29.72 2.90 30.56 3.92L30.56 3.92L30.56 3.92Q31.40 4.94 31.40 6.61L31.40 6.61ZM28.04 4.31L28.04 4.31L28.04 4.31Q26.61 4.31 26.50 6.12L26.50 6.12L29.57 6.12L29.57 6.12Q29.48 4.31 28.04 4.31ZM36.19 6.40L32.48 6.40L32.48 4.80L36.19 4.80L36.19 6.40ZM39.41 10.50L37.59 10.50L37.59-0.70L39.41-0.70L39.41 10.50ZM42.91 10.50L41.09 10.50L41.09 3.08L42.91 3.08L42.91 10.50ZM41.01-0.18L42.99-0.18L42.99 1.79L41.01 1.79L41.01-0.18ZM44.55-0.70L46.37-0.70L46.37 3.77L46.37 3.77Q47.10 2.90 48.34 2.90L48.34 2.90L48.34 2.90Q51.11 2.90 51.11 6.57L51.11 6.57L51.11 7.01L51.11 7.01Q51.11 8.71 50.45 9.70L50.45 9.70L50.45 9.70Q49.78 10.68 48.34 10.68L48.34 10.68L48.34 10.68Q46.91 10.68 46.20 9.58L46.20 9.58L46.05 10.50L44.44 10.50L44.55 8.40L44.55-0.70ZM46.37 5.33L46.37 5.33L46.37 8.25L46.37 8.25Q46.90 9.09 47.82 9.09L47.82 9.09L47.82 9.09Q49.29 9.09 49.29 7.01L49.29 7.01L49.29 6.57L49.29 6.57Q49.29 4.48 47.82 4.48L47.82 4.48L47.82 4.48Q46.91 4.48 46.37 5.33Z"></path></g><!----><!----></svg>