<?xml version="1.0" encoding="UTF-8" standalone="no"?>
<svg
   xmlns:dc="http://purl.org/dc/elements/1.1/"
   xmlns:cc="http://creativecommons.org/ns#"
   xmlns:rdf="http://www.w3.org/1999/02/22-rdf-syntax-ns#"
   xmlns:svg="http://www.w3.org/2000/svg"
   xmlns="http://www.w3.org/2000/svg"
   xmlns:sodipodi="http://sodipodi.sourceforge.net/DTD/sodipodi-0.dtd"
   xmlns:inkscape="http://www.inkscape.org/namespaces/inkscape"
   data-v-fde0c5aa=""
   viewBox="0 0 60.780201 60.780201"
   class="iconLeft"
   version="1.1"
   id="svg145"
   sodipodi:docname="default.svg"
   width="60.780201"
   height="60.780201"
   inkscape:version="1.0.2 (e86c8708, 2021-01-15)">
  <metadata
     id="metadata149">
    <rdf:RDF>
      <cc:Work
         rdf:about="">
        <dc:format>image/svg+xml</dc:format>
        <dc:type
           rdf:resource="http://purl.org/dc/dcmitype/StillImage" />
        <dc:title></dc:title>
      </cc:Work>
    </rdf:RDF>
  </metadata>
  <sodipodi:namedview
     pagecolor="#ffffff"
     bordercolor="#666666"
     borderopacity="1"
     objecttolerance="10"
     gridtolerance="10"
     guidetolerance="10"
     inkscape:pageopacity="0"
     inkscape:pageshadow="2"
     inkscape:window-width="1677"
     inkscape:window-height="731"
     id="namedview147"
     showgrid="false"
     inkscape:zoom="3.36"
     inkscape:cx="110"
     inkscape:cy="30.3901"
     inkscape:window-x="3001"
     inkscape:window-y="202"
     inkscape:window-maximized="0"
     inkscape:current-layer="svg145" />
  <!---->
  <defs
     data-v-fde0c5aa=""
     id="defs129">
    <linearGradient
       data-v-fde0c5aa=""
       id="627f20e7-80a0-4125-a0eb-12115164c8cf"
       x1="0"
       y1="0"
       x2="300"
       y2="0"
       gradientUnits="userSpaceOnUse"
       gradientTransform="translate(-40,-119.6099)">
      <stop
         data-v-fde0c5aa=""
         offset="0%"
         stop-color="#0978A6"
         stop-opacity="1"
         id="stop124" />
      <stop
         data-v-fde0c5aa=""
         offset="100%"
         stop-color="#FB9447"
         stop-opacity="1"
         id="stop126" />
    </linearGradient>
  </defs>
  <rect
     data-v-fde0c5aa=""
     fill="url(#627f20e7-80a0-4125-a0eb-12115164c8cf)"
     x="-40"
     y="-119.6099"
     width="300"
     height="300"
     class="logo-background-square"
     id="rect131"
     style="fill:url(#627f20e7-80a0-4125-a0eb-12115164c8cf)" />
  <defs
     data-v-fde0c5aa=""
     id="defs133">
    <!---->
  </defs>
  <g
     data-v-fde0c5aa=""
     id="f4026f93-bb3a-4116-8613-08c772f2b384"
     fill="#ffffff"
     transform="matrix(2.8942953,0,0,2.8942953,72.07257,12.15604)">
    <path
       d="m 3.68,9.27 v 0 0 q 0.63,0 0.95,-0.25 v 0 0 Q 4.96,8.76 4.96,8.34 v 0 0 q 0,-0.47 -0.31,-0.67 v 0 0 Q 4.34,7.46 3.54,7.39 v 0 0 Q 2,7.27 1.34,6.8 v 0 0 Q 0.69,6.33 0.69,5.35 v 0 -0.11 0 q 0,-1.15 0.82,-1.75 v 0 0 Q 2.32,2.9 3.68,2.9 v 0 0 q 3.01,0 3.01,2.53 v 0 0.07 H 4.91 v 0 q 0,-1.19 -1.23,-1.19 v 0 0 q -0.57,0 -0.89,0.24 v 0 0 Q 2.48,4.79 2.48,5.19 v 0 0 q 0,0.44 0.29,0.64 v 0 0 q 0.28,0.2 1.07,0.26 v 0 0 q 1.51,0.13 2.22,0.57 v 0 0 q 0.72,0.45 0.72,1.52 v 0 0.09 0 q 0,1.12 -0.79,1.77 v 0 0 q -0.8,0.64 -2.31,0.64 v 0 0 Q 2.16,10.68 1.37,10 v 0 0 Q 0.59,9.31 0.59,8.23 v 0 -0.05 h 1.8 v 0 q 0,1.09 1.29,1.09 z m 6.96,-8.29 v 2.1 h 2.06 v 1.6 h -2.06 v 3.2 0 q 0,0.7 0.29,0.95 v 0 0 q 0.3,0.26 0.91,0.26 v 0 0 q 0.52,0 0.72,-0.1 v 0 1.51 0 q -0.37,0.18 -1.15,0.18 v 0 0 q -2.59,0 -2.59,-2.6 v 0 -3.4 H 7.69 v -1.6 h 1.13 v -2.1 z m 4.75,2.1 1.62,5.15 1.64,-5.15 h 1.96 l -2.62,7.06 -0.98,3.16 h -2.16 l 1.18,-3.16 -2.62,-7.06 z m 7.95,7.42 H 21.52 V -0.7 h 1.82 z M 31.4,6.61 v 0.85 h -4.9 v 0 q 0.1,1.81 1.67,1.81 v 0 0 q 0.7,0 1.1,-0.34 v 0 0 q 0.41,-0.35 0.41,-0.81 v 0 h 1.72 v 0.06 0 q 0,1.05 -0.86,1.77 v 0 0 q -0.86,0.73 -2.39,0.73 v 0 0 q -1.72,0 -2.59,-1.02 v 0 0 Q 24.68,8.64 24.68,6.97 v 0 -0.36 0 q 0,-1.67 0.87,-2.69 v 0 0 Q 26.42,2.9 28.08,2.9 v 0 0 q 1.64,0 2.48,1.02 v 0 0 q 0.84,1.02 0.84,2.69 z m -3.36,-2.3 v 0 0 q -1.43,0 -1.54,1.81 v 0 h 3.07 v 0 Q 29.48,4.31 28.04,4.31 Z M 36.19,6.4 H 32.48 V 4.8 h 3.71 z m 3.22,4.1 H 37.59 V -0.7 h 1.82 z m 3.5,0 H 41.09 V 3.08 h 1.82 z m -1.9,-10.68 h 1.98 v 1.97 h -1.98 z m 3.54,-0.52 h 1.82 v 4.47 0 Q 47.1,2.9 48.34,2.9 v 0 0 q 2.77,0 2.77,3.67 v 0 0.44 0 q 0,1.7 -0.66,2.69 v 0 0 q -0.67,0.98 -2.11,0.98 v 0 0 q -1.43,0 -2.14,-1.1 v 0 l -0.15,0.92 h -1.61 l 0.11,-2.1 z m 1.82,6.03 v 0 2.92 0 q 0.53,0.84 1.45,0.84 v 0 0 q 1.47,0 1.47,-2.08 v 0 -0.44 0 q 0,-2.09 -1.47,-2.09 v 0 0 q -0.91,0 -1.45,0.85 z"
       id="path135" />
  </g>
  <defs
     data-v-fde0c5aa=""
     id="defs138">
    <!---->
  </defs>
  <g
     data-v-fde0c5aa=""
     id="74e036a4-97d1-4910-9ac6-06488b614dbd"
     stroke="none"
     fill="#ffffff"
     transform="scale(1.8993813)">
    <path
       d="M 0,32 H 32 V 0 H 0 Z M 2.038,2.038 H 29.961 V 29.961 H 2.038 Z"
       id="path140" />
    <path
       d="M 4.038,27.962 H 27.961 V 4.038 H 4.038 Z M 21.049,8.25 h 3.402 v 3.402 h -3.402 z m 0,6.049 h 3.402 v 3.402 h -3.402 z m 0,6.049 h 3.402 V 23.75 H 21.049 Z M 14.299,8.25 h 3.402 v 3.402 h -3.402 z m 0,6.049 h 3.402 v 3.402 h -3.402 z m 0,6.049 h 3.402 V 23.75 H 14.299 Z M 7.549,8.25 h 3.402 v 3.402 H 7.549 Z m 0,6.049 h 3.402 v 3.402 H 7.549 Z m 0,6.049 h 3.402 V 23.75 H 7.549 Z"
       id="path142" />
  </g>
  <!---->
</svg>
